# xmcd
#
# Track frame offsets: 
#        150
#        22992
#        45620
#        60576
#        77934
#        98008
#        115151
#        130414
#        146146
#        160547
#        177266
#        189434
#
# Disc length: 2891 seconds
#
# Revision: 1
# Processed by: cddbd v1.5.2PL0 Copyright (c) Steve Scherf et al.
# Submitted via: ExactAudioCopy v1.3
#
DISCID=990b490c
DTITLE=Kenny 'Blues Boss' Wayne - Inspired By The Blues
DYEAR=2018
DGENRE=Blues
TTITLE0=I Knew I'd Be Playing The Blues
TTITLE1=Start Rockin'
TTITLE2=How 'Bout That
TTITLE3=I Like That Woman
TTITLE4=Jimmy And Johnny
TTITLE5=Make Up Your Mind
TTITLE6=Lake Country Boogie
TTITLE7=Mr. Blueberry Hill
TTITLE8=An Old Brick Wall
TTITLE9=That Girl Needs Help
TTITLE10=That Raggedy Shack
TTITLE11=Georgia On My Mind (Live Bonus Track)
EXTD=
EXTT0=
EXTT1=
EXTT2=
EXTT3=
EXTT4=
EXTT5=
EXTT6=
EXTT7=
EXTT8=
EXTT9=
EXTT10=
EXTT11=
PLAYORDER=
